0
SECTION
2
HEADER
9
$INSUNITS
70
4
9
$ACADVER
1
AC1014
9
$HANDSEED
5
FFFF
0
ENDSEC
0
SECTION
2
TABLES
0
TABLE
2
VPORT
5
8
100
AcDbSymbolTable
0
ENDTAB
0
TABLE
2
LTYPE
5
5
100
AcDbSymbolTable
0
LTYPE
5
14
100
AcDbSymbolTableRecord
100
AcDbLinetypeTableRecord
2
BYBLOCK
70
0
0
LTYPE
5
15
100
AcDbSymbolTableRecord
100
AcDbLinetypeTableRecord
2
BYLAYER
70
0
0
ENDTAB
0
TABLE
2
LAYER
5
2
100
AcDbSymbolTable
70
2
0
LAYER
5
50
100
AcDbSymbolTableRecord
100
AcDbLayerTableRecord
2
0
70
0
6
CONTINUOUS
0
ENDTAB
0
TABLE
2
STYLE
5
3
100
AcDbSymbolTable
70
1
0
STYLE
5
11
100
AcDbSymbolTableRecord
100
AcDbTextStyleTableRecord
2
STANDARD
70
0
0
ENDTAB
0
TABLE
2
VIEW
5
6
100
AcDbSymbolTable
70
0
0
ENDTAB
0
TABLE
2
UCS
5
7
100
AcDbSymbolTable
70
0
0
ENDTAB
0
TABLE
2
APPID
5
9
100
AcDbSymbolTable
70
2
0
APPID
5
12
100
AcDbSymbolTableRecord
100
AcDbRegAppTableRecord
2
ACAD
70
0
0
ENDTAB
0
TABLE
2
DIMSTYLE
5
A
100
AcDbSymbolTable
70
1
0
ENDTAB
0
TABLE
2
BLOCK_RECORD
5
1
100
AcDbSymbolTable
70
1
0
BLOCK_RECORD
5
1F
100
AcDbSymbolTableRecord
100
AcDbBlockTableRecord
2
*MODEL_SPACE
0
BLOCK_RECORD
5
1B
100
AcDbSymbolTableRecord
100
AcDbBlockTableRecord
2
*PAPER_SPACE
0
ENDTAB
0
ENDSEC
0
SECTION
2
BLOCKS
0
BLOCK
5
20
100
AcDbEntity
100
AcDbBlockBegin
2
*MODEL_SPACE
0
ENDBLK
5
21
100
AcDbEntity
100
AcDbBlockEnd
0
BLOCK
5
1C
100
AcDbEntity
100
AcDbBlockBegin
2
*PAPER_SPACE
0
ENDBLK
5
1D
100
AcDbEntity
100
AcDbBlockEnd
0
ENDSEC
0
SECTION
2
ENTITIES
0
SPLINE
5
100
100
AcDbEntity
8
0
100
AcDbSpline
70
0
71
3
72
43
73
39
74
0
42
0.000000001
43
0.0000000001
44
0.0000000001
40
1.9673889570192846
40
1.9673889570192846
40
1.9673889570192846
40
1.9673889570192846
40
2.0137707742938011
40
2.0137707742938011
40
2.1438278474702384
40
2.1438278474702384
40
2.2213709890477791
40
2.2213709890477791
40
2.2998282691092293
40
2.2998282691092293
40
2.2998282691092293
40
2.4329108875519903
40
2.4329108875519903
40
2.5804981092656378
40
2.5804981092656378
40
2.7442841892760996
40
2.7442841892760996
40
2.9410701062795477
40
2.9410701062795477
40
3.0656301193827087
40
3.0656301193827087
40
3.167105484278947
40
3.167105484278947
40
3.256093487375578
40
3.256093487375578
40
3.3346186106421163
40
3.3346186106421163
40
3.4280284630616071
40
3.4280284630616071
40
3.5378819911262465
40
3.5378819911262465
40
3.6796508680513531
40
3.6796508680513531
40
3.8601660357686889
40
3.8601660357686889
40
4.1287484971959394
40
4.1287484971959394
40
4.2672172261285137
40
4.2672172261285137
40
4.2672172261285137
40
4.2672172261285137
10
-142.44991717011624
20
279.75340881801293
30
0
10
-142.56693083284571
20
279.75340193894903
30
0
10
-142.6907226280488
20
279.76015649803844
30
0
10
-143.18427588376895
20
279.82008260248665
30
0
10
-143.58042288377226
20
279.93370042995264
30
0
10
-144.19476014399532
20
280.27503731269752
30
0
10
-144.40543016959504
20
280.42972222681675
30
0
10
-144.78396167842658
20
280.77983427189986
30
0
10
-144.95309916757154
20
280.97696731769713
30
0
10
-145.0989792038273
20
281.19402481511355
30
0
10
-145.34642720595326
20
281.56220709324236
30
0
10
-145.51746248039586
20
281.97324750593947
30
0
10
-145.71716993411079
20
282.86463281621832
30
0
10
-145.72838310589123
20
283.34804241355721
30
0
10
-145.55461168138496
20
284.32222154533537
30
0
10
-145.36169993986596
20
284.74041291581506
30
0
10
-144.92764569000394
20
285.43847539616263
30
0
10
-144.62143327569297
20
285.77144398755075
30
0
10
-144.03978679500844
20
286.18659758532186
30
0
10
-143.67678957599867
20
286.39811740196069
30
0
10
-142.76411463219989
20
286.60380516604999
30
0
10
-142.33973214336964
20
286.61466058721697
30
0
10
-141.57953827858844
20
286.49379064431281
30
0
10
-141.18664173104537
20
286.37206301141811
30
0
10
-140.46518881499267
20
285.92628169837616
30
0
10
-140.17377231034752
20
285.65387245293192
30
0
10
-139.65429233755856
20
284.98074030167953
30
0
10
-139.44603498675914
20
284.56196006892492
30
0
10
-139.18210068999994
20
283.61664300733446
30
0
10
-139.17895404111891
20
283.15963088852743
30
0
10
-139.27265821825262
20
282.31814314005044
30
0
10
-139.41802333277272
20
281.86025488942255
30
0
10
-139.92906113354144
20
280.93321799152443
30
0
10
-140.27100138927128
20
280.61953630450853
30
0
10
-140.83032237910481
20
280.17538818011286
30
0
10
-141.20451778323053
20
279.98421528150482
30
0
10
-141.8116613699836
20
279.81280530687519
30
0
10
-142.10058353968287
20
279.75320175952709
30
0
10
-142.44991717011624
20
279.75340881801293
30
0
0
LWPOLYLINE
5
101
100
AcDbEntity
8
0
100
AcDbPolyline
90
4
70
1
43
0.0
10
-275.00019073486192
20
296.74999809265279
10
-275.00019073486249
20
-80.250001907341442
10
-10.000190734863139
20
-80.250001907348562
10
-10.00019073485965
20
296.7499980926533
0
ENDSEC
0
SECTION
2
OBJECTS
0
DICTIONARY
5
C
100
AcDbDictionary
3
ACAD_GROUP
350
D
3
ACAD_MLINESTYLE
350
17
0
DICTIONARY
5
D
100
AcDbDictionary
0
DICTIONARY
5
1A
330
C
100
AcDbDictionary
0
DICTIONARY
5
17
100
AcDbDictionary
0
ENDSEC
0
EOF
